<svg xmlns="http://www.w3.org/2000/svg" xmlns:xlink="http://www.w3.org/1999/xlink" viewBox="0 0 312.17 339.7"><defs><style>.cls-1{isolation:isolate;}.cls-2{fill:url(#Degradado_sin_nombre_2);}.cls-3{fill:url(#Degradado_sin_nombre_5);}.cls-4{opacity:0.63;}.cls-5,.cls-8{mix-blend-mode:overlay;}.cls-6{fill:url(#Degradado_sin_nombre_124);}.cls-7{fill:url(#Degradado_sin_nombre_2-2);}.cls-8{opacity:0.52;}.cls-9{fill:url(#Degradado_sin_nombre_124-2);}</style><linearGradient id="Degradado_sin_nombre_2" x1="-80.81" y1="-30.3" x2="435.47" y2="277.42" gradientUnits="userSpaceOnUse"><stop offset="0" stop-color="#f94e6c"/><stop offset="0.05" stop-color="#f53270"/><stop offset="0.13" stop-color="#ef0078"/><stop offset="0.31" stop-color="#c42186"/><stop offset="0.69" stop-color="#5972a8"/><stop offset="1" stop-color="#00b5c4"/></linearGradient><linearGradient id="Degradado_sin_nombre_5" x1="-21.14" y1="427.78" x2="401.36" y2="-20.69" gradientUnits="userSpaceOnUse"><stop offset="0" stop-color="#0034ff"/><stop offset="0.25" stop-color="#0050f2"/><stop offset="0.78" stop-color="#0096d2"/><stop offset="1" stop-color="#00b5c4"/></linearGradient><linearGradient id="Degradado_sin_nombre_124" x1="139.85" y1="308.21" x2="249.95" y2="42.78" gradientUnits="userSpaceOnUse"><stop offset="0.02" stop-color="#fff" stop-opacity="0"/><stop offset="1" stop-color="#fff"/></linearGradient><linearGradient id="Degradado_sin_nombre_2-2" x1="31.48" y1="77.44" x2="66.41" y2="233.55" xlink:href="#Degradado_sin_nombre_2"/><linearGradient id="Degradado_sin_nombre_124-2" x1="48.94" y1="187.87" x2="111.04" y2="96.44" xlink:href="#Degradado_sin_nombre_124"/></defs><g class="cls-1"><g id="Layer_2" data-name="Layer 2"><g id="BACKGROUND"><path class="cls-2" d="M311.85,169.84c0-83.15-50.61-146-127.18-164.33A204.54,204.54,0,0,0,136.93,0H7.6A7,7,0,0,0,.71,8.3,93.12,93.12,0,0,0,92.47,85.69c.34,0,.68,0,1,0,0,.64.06,1.28.07,1.92V85.84h39a106.46,106.46,0,0,1,13.56.86A132.34,132.34,0,0,1,246.61,288.5c-4.21,6.73,4.61,14.18,10.56,8.91C291.49,267,311.85,222.39,311.85,169.84Z"/><path class="cls-3" d="M312.17,169.85c0,83.15-50.61,146-127.18,164.34a204.52,204.52,0,0,1-47.73,5.51H0A93.1,93.1,0,0,1,92.79,254c.35,0,.69,0,1,0,0-.64.06-1.28.06-1.92v1.73h39a106.6,106.6,0,0,0,13.56-.85A132.32,132.32,0,0,0,212.1,13.93C273.17,39.54,312.17,97.11,312.17,169.85Z"/><g class="cls-4"><g class="cls-5"><path class="cls-6" d="M253.15,38.59c23.8,28.94,37.46,66.66,37.46,109.7,0,83.15-50.61,146-127.18,164.33a204,204,0,0,1-47.73,5.52H12.44A10.72,10.72,0,0,0,2,326.49c0,.08,0,.15,0,.22a10.68,10.68,0,0,0,10.43,13H137.26A204.52,204.52,0,0,0,185,334.19C261.56,315.84,312.17,253,312.17,169.85,312.17,115.13,290.09,69,253.15,38.59Z"/></g></g><path class="cls-7" d="M97.1,140.45V103a7,7,0,0,0-8.3-6.89,93.12,93.12,0,0,0-77.39,91.76c0,.34-.15,30.66-.15,30.66l.27,23.66V256a7.05,7.05,0,0,0,8.3,6.89,93.13,93.13,0,0,0,77.39-91.77C97.22,170.77,97.1,140.45,97.1,140.45Z"/><g class="cls-8"><path class="cls-9" d="M97.1,140.45V103a7,7,0,0,0-8.3-6.89A93,93,0,0,0,33.25,128a92.55,92.55,0,0,1,40-17.22,7,7,0,0,1,8.29,6.89v37.42s.12,30.31.12,30.66a92.69,92.69,0,0,1-21.83,59.88,93,93,0,0,0,37.36-74.55C97.22,170.77,97.1,140.45,97.1,140.45Z"/></g></g></g></g></svg>